<svg xmlns="http://www.w3.org/2000/svg" viewBox="0 0 512 512">
  <defs>
    <linearGradient id="fishGradient" x1="0%" y1="0%" x2="100%" y2="100%">
      <stop offset="0%" style="stop-color:#0D9488"/>
      <stop offset="100%" style="stop-color:#14B8A6"/>
    </linearGradient>
    <linearGradient id="bgGradient" x1="0%" y1="0%" x2="100%" y2="100%">
      <stop offset="0%" style="stop-color:#0F172A"/>
      <stop offset="100%" style="stop-color:#1E3A5F"/>
    </linearGradient>
    <linearGradient id="accentGradient" x1="0%" y1="0%" x2="100%" y2="0%">
      <stop offset="0%" style="stop-color:#F97316"/>
      <stop offset="100%" style="stop-color:#FB923C"/>
    </linearGradient>
  </defs>

  <rect width="512" height="512" rx="96" fill="url(#bgGradient)"/>

  <g transform="translate(56, 140)">
    <path d="M360 116 C360 116 340 40 260 40 C180 40 140 80 100 100 C60 120 20 116 20 116 C20 116 60 140 100 160 C140 180 180 200 260 200 C340 200 360 124 360 124 L400 80 L400 160 L360 116Z"
          fill="url(#fishGradient)" opacity="0.95"/>
    <path d="M360 116 L400 80 L400 160 L360 124" fill="url(#fishGradient)"/>
    <path d="M200 40 C220 10 280 10 300 40" stroke="url(#accentGradient)" stroke-width="12" fill="none" stroke-linecap="round"/>
    <circle cx="120" cy="100" r="16" fill="#0F172A"/>
    <circle cx="124" cy="96" r="6" fill="#F8FAFC"/>
    <path d="M160 80 Q200 100 160 120" stroke="#0F172A" stroke-width="3" fill="none" opacity="0.3"/>
    <path d="M200 70 Q240 100 200 130" stroke="#0F172A" stroke-width="3" fill="none" opacity="0.3"/>
    <path d="M240 65 Q280 100 240 135" stroke="#0F172A" stroke-width="3" fill="none" opacity="0.3"/>
    <path d="M280 70 Q320 100 280 130" stroke="#0F172A" stroke-width="3" fill="none" opacity="0.3"/>
  </g>

  <g opacity="0.4">
    <path d="M80 360 Q160 340 240 360 Q320 380 400 360" stroke="#0D9488" stroke-width="6" fill="none" stroke-linecap="round"/>
    <path d="M100 400 Q180 380 260 400 Q340 420 420 400" stroke="#0D9488" stroke-width="4" fill="none" stroke-linecap="round"/>
  </g>
</svg>
