<svg xmlns="http://www.w3.org/2000/svg" viewBox="0 0 192 192">
  <defs>
    <linearGradient id="fishGrad" x1="0%" y1="0%" x2="100%" y2="100%">
      <stop offset="0%" style="stop-color:#0D9488"/>
      <stop offset="100%" style="stop-color:#14B8A6"/>
    </linearGradient>
    <linearGradient id="bgGrad" x1="0%" y1="0%" x2="100%" y2="100%">
      <stop offset="0%" style="stop-color:#0F172A"/>
      <stop offset="100%" style="stop-color:#1E3A5F"/>
    </linearGradient>
  </defs>

  <rect width="192" height="192" rx="36" fill="url(#bgGrad)"/>

  <g transform="translate(21, 52.5) scale(0.375)">
    <path d="M360 116 C360 116 340 40 260 40 C180 40 140 80 100 100 C60 120 20 116 20 116 C20 116 60 140 100 160 C140 180 180 200 260 200 C340 200 360 124 360 124 L400 80 L400 160 L360 116Z"
          fill="url(#fishGrad)"/>
    <path d="M200 40 C220 10 280 10 300 40" stroke="#F97316" stroke-width="12" fill="none" stroke-linecap="round"/>
    <circle cx="120" cy="100" r="16" fill="#0F172A"/>
    <circle cx="124" cy="96" r="6" fill="#F8FAFC"/>
  </g>
</svg>
